/* XPM */
static char * bar2_xpm[] = {
"17 17 72 1",
" 	c None",
".	c #77797E",
"+	c #57595C",
"@	c #57595B",
"#	c #58595C",
"$	c #575A5C",
"%	c #585A5C",
"&	c #56585B",
"*	c #57585B",
"=	c #56595B",
"-	c #56595A",
";	c #55585A",
">	c #56585A",
",	c #55575A",
"'	c #56575A",
")	c #555759",
"!	c #555658",
"~	c #545759",
"{	c #545658",
"]	c #545659",
"^	c #545758",
"/	c #555659",
"(	c #545558",
"_	c #545557",
":	c #535657",
"<	c #535557",
"[	c #535558",
"}	c #535658",
"|	c #525457",
"1	c #525557",
"2	c #535457",
"3	c #535458",
"4	c #525456",
"5	c #515456",
"6	c #515457",
"7	c #525556",
"8	c #535556",
"9	c #515355",
"0	c #525356",
"a	c #525455",
"b	c #515356",
"c	c #515455",
"d	c #505355",
"e	c #515354",
"f	c #505254",
"g	c #505255",
"h	c #515255",
"i	c #4F5153",
"j	c #505154",
"k	c #4F5254",
"l	c #4F5253",
"m	c #4E5153",
"n	c #4F5152",
"o	c #4F5154",
"p	c #4F5053",
"q	c #505153",
"r	c #4E5052",
"s	c #4E5053",
"t	c #4F5052",
"u	c #4D4F52",
"v	c #4D4F51",
"w	c #4E4F51",
"x	c #4D5051",
"y	c #4D5052",
"z	c #4E4F52",
"A	c #4E5051",
"B	c #4D4E50",
"C	c #4C4F51",
"D	c #4C4F50",
"E	c #4C4E50",
"F	c #4D4F50",
"G	c #47484A",
".................",
"++@++#+++#+$%@$%+",
"&*@=-&@*=@&&@@+*@",
";>>>,>>;;>>>>>&>'",
")))))))))),),),,,",
"!~{]]^]^])]/]]]~~",
"({_:{<{[([}[}{[{{",
"|1<|<1<<[<<2<<<<3",
"444544644|||47484",
"99909aa09a59bcb55",
"defdeg9gfgh9dd9eg",
"ifjkkfjfffkflfkff",
"minimmiiioiipiliq",
"rrrmsrsiptrsrpmtp",
"uvwxruxxruwyyzuuA",
"BvCDvEFFBCCvDBCvv",
"GGGGGGGGGGGGGGGGG"};
