/* XPM */
static char * bullet_xpm[] = {
"16 16 93 2",
"  	c None",
". 	c #77797E",
"+ 	c #6F7175",
"@ 	c #47484A",
"# 	c #65676B",
"$ 	c #57595B",
"% 	c #57595C",
"& 	c #57585B",
"* 	c #56595B",
"= 	c #555659",
"- 	c #4A4B4D",
"; 	c #636569",
"> 	c #56585A",
", 	c #56585B",
"' 	c #56595A",
") 	c #545658",
"! 	c #4A4B4E",
"~ 	c #555759",
"{ 	c #55585A",
"] 	c #55575A",
"^ 	c #555859",
"/ 	c #56575A",
"( 	c #565759",
"_ 	c #535557",
": 	c #636468",
"< 	c #545659",
"[ 	c #555658",
"} 	c #545759",
"| 	c #545758",
"1 	c #535457",
"2 	c #626468",
"3 	c #535658",
"4 	c #545558",
"5 	c #535456",
"6 	c #494A4D",
"7 	c #626467",
"8 	c #535558",
"9 	c #525557",
"0 	c #525456",
"a 	c #616466",
"b 	c #525457",
"c 	c #515355",
"d 	c #484A4C",
"e 	c #616366",
"f 	c #515356",
"g 	c #515456",
"h 	c #525356",
"i 	c #505255",
"j 	c #48494B",
"k 	c #515354",
"l 	c #505355",
"m 	c #515254",
"n 	c #515255",
"o 	c #505154",
"p 	c #606265",
"q 	c #505254",
"r 	c #4F5254",
"s 	c #505253",
"t 	c #4F5154",
"u 	c #505153",
"v 	c #4F5153",
"w 	c #5F6165",
"x 	c #4E5052",
"y 	c #47494B",
"z 	c #5F6164",
"A 	c #4F5052",
"B 	c #4E5152",
"C 	c #4E5053",
"D 	c #4F5152",
"E 	c #4D4F51",
"F 	c #5E6064",
"G 	c #4E4F51",
"H 	c #4E4F52",
"I 	c #4D4F52",
"J 	c #4E5051",
"K 	c #4D5052",
"L 	c #4C4E51",
"M 	c #5B5D61",
"N 	c #4C4E50",
"O 	c #4C4D4F",
"P 	c #4B4E4F",
"Q 	c #4C4E4F",
"R 	c #4A4D4F",
"S 	c #4A4D4E",
"T 	c #4B4C4F",
"U 	c #4B4D4E",
"V 	c #4B4C4E",
"W 	c #4A4C4E",
"X 	c #4A4C4F",
"Y 	c #484A4D",
"Z 	c #444648",
"` 	c #454648",
" .	c #434446",
". . . . . . . . . . . . . . + @ ",
"# $ % & % % $ % $ $ $ * $ % = - ",
"; > > , , > , , , * , > ' , ) ! ",
"; ~ { ] ^ ~ ^ ~ / ~ ] { ( ] _ - ",
": < [ = = = < } = = = | = ~ 1 - ",
"2 ) ) ) 3 3 ) ) ) < ) 3 4 3 5 6 ",
"7 _ _ _ 1 1 _ _ 8 8 8 8 8 9 0 6 ",
"a 1 0 0 0 b b b 0 0 0 5 0 0 c d ",
"e c f g h 0 g c 0 0 h 0 f h i j ",
"e c c k l l m i n l l l n m o j ",
"p q q q q r r s q r t q u o v j ",
"w v v v v v v v v v v t v v x y ",
"z A x x B C D x C C x x x x E @ ",
"F G H E H I E E J J I E K I L @ ",
"M N O P Q R S T S T U V W X Y Z ",
"V @ @ @ @ @ @ @ @ @ @ @ @ @ `  ."};
