/* XPM */
static char * closefcs_xpm[] = {
"17 17 77 1",
" 	c None",
".	c #77797E",
"+	c #58595C",
"@	c #57595C",
"#	c #575A5C",
"$	c #57595B",
"%	c #56595B",
"&	c #57585B",
"*	c #56585B",
"=	c #56585A",
"-	c #56575B",
";	c #55575A",
">	c #56575A",
",	c #55585A",
"'	c #555759",
")	c #565859",
"!	c #545659",
"~	c #FBFBFC",
"{	c #FAFAFA",
"]	c #565759",
"^	c #FDFDFD",
"/	c #FEFEFE",
"(	c #555758",
"_	c #545758",
":	c #545658",
"<	c #535558",
"[	c #535658",
"}	c #545558",
"|	c #F8F8F9",
"1	c #F4F5F6",
"2	c #F4F4F4",
"3	c #F6F6F6",
"4	c #535557",
"5	c #535457",
"6	c #525557",
"7	c #525456",
"8	c #EDEDED",
"9	c #FBFCFC",
"0	c #525558",
"a	c #525356",
"b	c #525457",
"c	c #525355",
"d	c #515455",
"e	c #515355",
"f	c #515456",
"g	c #515356",
"h	c #505355",
"i	c #505255",
"j	c #FCFCFD",
"k	c #F8F8F8",
"l	c #505354",
"m	c #515255",
"n	c #505153",
"o	c #505253",
"p	c #505254",
"q	c #4F5254",
"r	c #F7F7F7",
"s	c #515354",
"t	c #4F5153",
"u	c #4F5154",
"v	c #4E5152",
"w	c #4F5053",
"x	c #4F5052",
"y	c #4E5053",
"z	c #4E5052",
"A	c #4E5051",
"B	c #4D4F51",
"C	c #4D4F52",
"D	c #4E4F51",
"E	c #4D5051",
"F	c #4E4F52",
"G	c #4C4E51",
"H	c #4C4F51",
"I	c #4D4F50",
"J	c #4D4E50",
"K	c #4D4E51",
"L	c #47484A",
".................",
"+@@@#@@@$@#@@@$@@",
"%$&$**%%**$$%%&&*",
"====*==**=-=;=>,=",
"'''''';;';;'');>;",
"''!!!~{*!]^/((_(:",
":<[}[|/1:2/3[}[[:",
"4545678/29^7<405<",
"a7777b7///77b7b75",
"cdeef:^///3ef7gae",
"hieeh^jkb^/^lhmmh",
"nopqp/rips^/ppqpp",
"ttutttttutttttttt",
"vwxyxzvxzyxwyzzzz",
"ABCDDDDAEzDBFFzEB",
"GHHIGBIJBBIIJKHGH",
"LLLLLLLLLLLLLLLLL"};
