/* XPM */
static char * closepr_xpm[] = {
"17 17 84 1",
" 	c None",
".	c #77797E",
"+	c #57595B",
"@	c #575A5C",
"#	c #57595C",
"$	c #575A5B",
"%	c #585A5C",
"&	c #58595C",
"*	c #56585B",
"=	c #56595A",
"-	c #56595B",
";	c #57585B",
">	c #56585A",
",	c #55585A",
"'	c #56575B",
")	c #55585B",
"!	c #56575A",
"~	c #55575A",
"{	c #555759",
"]	c #545759",
"^	c #565759",
"/	c #545659",
"(	c #545758",
"_	c #545658",
":	c #000000",
"<	c #555B60",
"[	c #56595D",
"}	c #55595E",
"|	c #555659",
"1	c #535658",
"2	c #545558",
"3	c #0D0D0D",
"4	c #54595F",
"5	c #535558",
"6	c #545557",
"7	c #535556",
"8	c #525557",
"9	c #535557",
"0	c #525457",
"a	c #54585D",
"b	c #070707",
"c	c #53585C",
"d	c #525456",
"e	c #525558",
"f	c #53575B",
"g	c #53575C",
"h	c #515356",
"i	c #515355",
"j	c #52555A",
"k	c #060607",
"l	c #515458",
"m	c #515455",
"n	c #515456",
"o	c #515255",
"p	c #505254",
"q	c #505354",
"r	c #505355",
"s	c #515354",
"t	c #505255",
"u	c #4F5154",
"v	c #505154",
"w	c #515459",
"x	c #515457",
"y	c #4F5053",
"z	c #4F5153",
"A	c #4E5152",
"B	c #4E5052",
"C	c #4F5052",
"D	c #4E5053",
"E	c #4E5153",
"F	c #4D4F51",
"G	c #4E4F52",
"H	c #4D5052",
"I	c #4E4F51",
"J	c #4E5051",
"K	c #4D5051",
"L	c #4D4E50",
"M	c #4C4F50",
"N	c #4D4E51",
"O	c #4C4E51",
"P	c #4C4F51",
"Q	c #4D4F50",
"R	c #4C4E50",
"S	c #47484A",
".................",
"+@#+@##@$#++#%##&",
"*=++++--+-;*;;++-",
">>,>>>>>'>*,>)!~>",
"{]~~{~~{~~{{^~~{~",
"/(__/::<[}::]/|//",
"1_221::34:::5__16",
"78909a::::bc89989",
"dddddef:::geddddd",
"hhihijk:k::lhhmdn",
"opqrr:::j:::iisot",
"ppupv::wpx::ppppp",
"yyzzzzzyzzzzzzuzu",
"ABBBCBBDDEECBDABB",
"FFFFFGHHGIJBJBKKB",
"LMNOONMPQPFFOFPRF",
"SSSSSSSSSSSSSSSSS"};
