/* XPM */
static char * closeufcs_xpm[] = {
"17 17 12 1",
" 	c None",
".	c #E9E9E9",
"+	c #E8E8E8",
"@	c #ECEDEE",
"#	c #000000",
"$	c #0D0D0D",
"%	c #070707",
"&	c #060607",
"*	c #9B9B9B",
"=	c #9A9A9A",
"-	c #999999",
";	c #989898",
"................+",
"@@@@@@@@@@@@@@@@@",
"@@@@@@@@@@@@@@@@@",
"@@@@@@@@@@@@@@@@@",
"@@@@@@@@@@@@@@@@@",
"@@@@@##@@@##@@@@@",
"@@@@@##$@###@@@@@",
"@@@@@@####%@@@@@@",
"@@@@@@@###@@@@@@@",
"@@@@@@&#&##@@@@@@",
"@@@@@###@###@@@@@",
"@@@@@##@@@##@@@@@",
"@@@@@@@@@@@@@@@@@",
"@@@@@@@@@@@@@@@@@",
"@@@@@@@@@@@@@@@@@",
"@@@@@@@@@@@@@@@@@",
"*========-------;"};
