/* XPM */
static char * maxfcs_xpm[] = {
"17 17 79 1",
" 	c None",
".	c #77797E",
"+	c #56575B",
"@	c #56585B",
"#	c #56585A",
"$	c #56575A",
"%	c #57585B",
"&	c #57595B",
"*	c #56595A",
"=	c #555859",
"-	c #55575A",
";	c #565859",
">	c #55585A",
",	c #555759",
"'	c #565759",
")	c #545659",
"!	c #545759",
"~	c #555659",
"{	c #545658",
"]	c #545558",
"^	c #555658",
"/	c #535658",
"(	c #535557",
"_	c #535558",
":	c #FFFFFF",
"<	c #525556",
"[	c #525457",
"}	c #535456",
"|	c #525557",
"1	c #F9F9F9",
"2	c #FAFAFA",
"3	c #535457",
"4	c #525356",
"5	c #515456",
"6	c #525456",
"7	c #525659",
"8	c #525357",
"9	c #515457",
"0	c #515355",
"a	c #525355",
"b	c #52565A",
"c	c #52555A",
"d	c #515559",
"e	c #515356",
"f	c #515255",
"g	c #505255",
"h	c #515354",
"i	c #51555A",
"j	c #505356",
"k	c #515458",
"l	c #525559",
"m	c #505253",
"n	c #505254",
"o	c #4F5154",
"p	c #505458",
"q	c #505357",
"r	c #4F5153",
"s	c #4F5254",
"t	c #4F5253",
"u	c #4E5052",
"v	c #4F5152",
"w	c #4E5153",
"x	c #4F5053",
"y	c #4F5052",
"z	c #4E5053",
"A	c #4E5152",
"B	c #4E4F52",
"C	c #4D5052",
"D	c #4D4F51",
"E	c #4D5051",
"F	c #4D4F52",
"G	c #4C4F50",
"H	c #4D4E50",
"I	c #4C4E51",
"J	c #4D4F50",
"K	c #4C4E50",
"L	c #4C4F51",
"M	c #4D4E51",
"N	c #47484A",
".................",
"+@@##$@@##@#%&@#*",
"=--#;>,'$-=>-$$>'",
")!)!,~!)))!,,!,)~",
"{{{){{){]){)){){^",
"/](__:::::::{/(]/",
"<[}||::::12:((((3",
"44566:7|(8&:946[6",
"0a000:bc4d7:0e0aa",
"fgfhg:iejkl:g0hff",
"mnnno:pkqkk:nnnnn",
"rooso:::::::rostr",
"uurvwxwwyuzryxAxx",
"BCuCuCuBuuuuBuCuu",
"DDDDDDDEDFDDDEDFB",
"GHGIDGIJIIKLDIKJM",
"NNNNNNNNNNNNNNNNN"};
