/* XPM */
static char * maxpr_xpm[] = {
"17 17 61 1",
" 	c None",
".	c #636568",
"+	c #57595B",
"@	c #57585C",
"#	c #57585B",
"$	c #57595C",
"%	c #575A5B",
"&	c #57585A",
"*	c #56585A",
"=	c #56595B",
"-	c #56585B",
";	c #55575A",
">	c #55585A",
",	c #56575A",
"'	c #555759",
")	c #555659",
"!	c #545659",
"~	c #545759",
"{	c #545658",
"]	c #545558",
"^	c #000000",
"/	c #535557",
"(	c #535657",
"_	c #535658",
":	c #525456",
"<	c #525457",
"[	c #525557",
"}	c #535457",
"|	c #525556",
"1	c #535456",
"2	c #515456",
"3	c #515356",
"4	c #525356",
"5	c #525355",
"6	c #515255",
"7	c #515355",
"8	c #505355",
"9	c #505254",
"0	c #505458",
"a	c #505356",
"b	c #505255",
"c	c #4F5153",
"d	c #4F5154",
"e	c #505153",
"f	c #4F5253",
"g	c #4E5153",
"h	c #4F5152",
"i	c #4F5052",
"j	c #4F5053",
"k	c #4E5052",
"l	c #4E5152",
"m	c #4D4F52",
"n	c #4E5051",
"o	c #4D5052",
"p	c #4D4F51",
"q	c #4C4E51",
"r	c #4C4E50",
"s	c #4C4F50",
"t	c #4D4E50",
"u	c #4D4E51",
"v	c #47484A",
".................",
"+@#+++$++$+$$$++%",
"&*&=-*---#=-&-*--",
";>>;*>;*>;>>>,*>*",
"')!'~'~)~'!''~~)'",
"{!{]{^^^^^^^{{]{!",
"///(/^^^^^^^{//_/",
":<<[}^<}|<<^|1:[}",
"2233:^4:523^5::::",
"67867^67776^77777",
"99999^0999a^9b789",
"ccdce^^^^^^^efddc",
"ghijhkjgjichlchch",
"mkmnoknnkkkkkkkkk",
"ppppppppppppmpppn",
"qrsrqtsprtrusqqss",
"vvvvvvvvvvvvvvvvv"};
