/* XPM */
static char * minfcs_xpm[] = {
"17 17 66 1",
" 	c None",
".	c #77797E",
"+	c #58595B",
"@	c #57595B",
"#	c #57595C",
"$	c #57585B",
"%	c #56595C",
"&	c #56595B",
"*	c #56585B",
"=	c #56585A",
"-	c #55575A",
";	c #56575A",
">	c #555759",
",	c #55585A",
"'	c #54575A",
")	c #545759",
"!	c #555659",
"~	c #545659",
"{	c #555758",
"]	c #555658",
"^	c #545658",
"/	c #545558",
"(	c #535558",
"_	c #535658",
":	c #545557",
"<	c #535557",
"[	c #535556",
"}	c #535457",
"|	c #525557",
"1	c #535456",
"2	c #525556",
"3	c #525457",
"4	c #525456",
"5	c #515356",
"6	c #515456",
"7	c #525455",
"8	c #515455",
"9	c #515355",
"0	c #505255",
"a	c #505354",
"b	c #515354",
"c	c #FFFFFF",
"d	c #515254",
"e	c #505254",
"f	c #505154",
"g	c #505253",
"h	c #4F5154",
"i	c #4F5254",
"j	c #4F5153",
"k	c #4E5153",
"l	c #4E5152",
"m	c #4E5052",
"n	c #4F5053",
"o	c #4E5053",
"p	c #4F5152",
"q	c #4F5052",
"r	c #4E4F52",
"s	c #4D4F52",
"t	c #4D5051",
"u	c #4D5052",
"v	c #4E4F51",
"w	c #4D4F51",
"x	c #4D4E51",
"y	c #4D4F50",
"z	c #4C4F51",
"A	c #424345",
".................",
"+@@#@#@#@@@@#@$%#",
"&&******=*====**=",
"===-;=-;>;->,--;>",
">-->>')>>>!~>{>]~",
"~^])^^^^~^^^^^^/^",
"(/_/(:/(///(<((<<",
"<<<<[}|1<<2}}<13}",
"34444354467645444",
"78559989995999999",
"00aabcccccccd00ee",
"eeefecccccccgfehh",
"ijjhjjjkjjjkjlkjj",
"mnoplmnmqmmmmrmmm",
"rstruvttwsvsusvww",
"xywzzzxzxywwwwxwy",
"AAAAAAAAAAAAAAAAA"};
