/* XPM */
static char * minpr_xpm[] = {
"17 17 65 1",
" 	c None",
".	c #636568",
"+	c #57585B",
"@	c #57595B",
"#	c #57585C",
"$	c #56595B",
"%	c #56585C",
"&	c #56585B",
"*	c #56585A",
"=	c #56575A",
"-	c #555759",
";	c #55575A",
">	c #565759",
",	c #555859",
"'	c #555659",
")	c #545759",
"!	c #555658",
"~	c #555758",
"{	c #545659",
"]	c #545658",
"^	c #545558",
"/	c #535658",
"(	c #535557",
"_	c #535558",
":	c #545557",
"<	c #535657",
"[	c #525457",
"}	c #525456",
"|	c #535456",
"1	c #535556",
"2	c #525556",
"3	c #535457",
"4	c #525557",
"5	c #515356",
"6	c #525356",
"7	c #515455",
"8	c #515456",
"9	c #515355",
"0	c #515255",
"a	c #505355",
"b	c #505254",
"c	c #505255",
"d	c #000000",
"e	c #515254",
"f	c #4F5154",
"g	c #4F5253",
"h	c #505154",
"i	c #4F5254",
"j	c #505253",
"k	c #4E5153",
"l	c #4F5153",
"m	c #4F5053",
"n	c #4E5052",
"o	c #4E4F51",
"p	c #4D4F51",
"q	c #4D4F52",
"r	c #4D5051",
"s	c #4C4F51",
"t	c #4C4F50",
"u	c #4D4F50",
"v	c #4C4E50",
"w	c #4D4E51",
"x	c #4C4E51",
"y	c #4D4E50",
"z	c #424345",
".................",
"+@#+$+%@@+##$+$@+",
"&*****&&&*&*&***&",
"=-;=;>;-=,,;=;;,-",
"-----'))-!'-)~-')",
"{]]]^/]^]]{]{]{]]",
"((_^/((__^:((_<(_",
"[}}|[[12}}}3|4}44",
"56655766}8}686686",
"9999099995999a59a",
"b0bbcdddddddbbebb",
"fghigdddddddbgjhg",
"klllllmkllkllllll",
"nnnnnnnnnnnnnnnnn",
"opoppqpporprpopqo",
"stuvvwtsxxpwvyssv",
"zzzzzzzzzzzzzzzzz"};
