/* XPM */
static char * shadeuppr_xpm[] = {
"17 17 63 1",
" 	c None",
".	c #636568",
"+	c #56595B",
"@	c #56585B",
"#	c #57595B",
"$	c #57585B",
"%	c #56585A",
"&	c #55575A",
"*	c #56575A",
"=	c #55585A",
"-	c #555759",
";	c #565759",
">	c #545758",
",	c #555659",
"'	c #545759",
")	c #545659",
"!	c #545558",
"~	c #535558",
"{	c #535658",
"]	c #000000",
"^	c #545557",
"/	c #545658",
"(	c #525457",
"_	c #535557",
":	c #535457",
"<	c #525456",
"[	c #525556",
"}	c #535456",
"|	c #515356",
"1	c #515456",
"2	c #515355",
"3	c #525356",
"4	c #515455",
"5	c #525355",
"6	c #505355",
"7	c #515255",
"8	c #505154",
"9	c #505254",
"0	c #505255",
"a	c #4F5153",
"b	c #4F5253",
"c	c #4F5154",
"d	c #505153",
"e	c #505253",
"f	c #4E5152",
"g	c #4F5052",
"h	c #4E5153",
"i	c #4F5053",
"j	c #4E5052",
"k	c #4F5152",
"l	c #4E5053",
"m	c #4E4F52",
"n	c #4D5052",
"o	c #4E4F51",
"p	c #4D4F52",
"q	c #4E5051",
"r	c #4D4F51",
"s	c #4D4E50",
"t	c #4D4F50",
"u	c #4C4F50",
"v	c #4C4F51",
"w	c #4C4E50",
"x	c #424345",
".................",
"++@@++#$##$%@$#+%",
"&**%%*=@*%*%%%%%%",
"--&&-&--&---&&-;;",
">>>,'),))'',)')-)",
"!!~~{]]]]]]]^/!/~",
"(_:__]]]]]]]_____",
"<<<(:(<<[[<}<(<<_",
"|1|123<|]411351|3",
"6226222]]]2727662",
"898999]]9]]909999",
"abc8a]]a8d]]aeabc",
"fgaha]igijg]agkil",
"mmnjnjopjjnjoonjq",
"rrrrrrrrrrrrrrrrr",
"srrtsutvwwuwwuuws",
"xxxxxxxxxxxxxxxxx"};
