/* XPM */
static char * shadednfcs_xpm[] = {
"17 17 60 1",
" 	c None",
".	c #636568",
"+	c #56585A",
"@	c #56585B",
"#	c #57585A",
"$	c #565759",
"%	c #555759",
"&	c #55575A",
"*	c #55585A",
"=	c #56575A",
"-	c #555659",
";	c #545659",
">	c #555758",
",	c #545658",
"'	c #545559",
")	c #545558",
"!	c #535557",
"~	c #FFFFFF",
"{	c #535658",
"]	c #535457",
"^	c #525456",
"/	c #535456",
"(	c #535556",
"_	c #525557",
":	c #525457",
"<	c #525356",
"[	c #515456",
"}	c #515355",
"|	c #515356",
"1	c #515455",
"2	c #525355",
"3	c #505254",
"4	c #505355",
"5	c #505255",
"6	c #515354",
"7	c #515255",
"8	c #4F5154",
"9	c #505153",
"0	c #505253",
"a	c #505154",
"b	c #4E5153",
"c	c #4F5153",
"d	c #4E5052",
"e	c #4F5052",
"f	c #4E5053",
"g	c #4F5053",
"h	c #4E5152",
"i	c #4D4F52",
"j	c #4D5051",
"k	c #4E4F51",
"l	c #4D4F51",
"m	c #4D4E51",
"n	c #4C4E50",
"o	c #4D4F50",
"p	c #4C4F51",
"q	c #4C4E51",
"r	c #4B4E4F",
"s	c #4C4F50",
"t	c #4D4E50",
"u	c #424345",
".................",
"+@@@@++@++@@@+#@+",
"$%&%&****&%**%==&",
"-;>;,-%-%-%%;--%%",
";',,),;,',;,,,;,,",
"!!!!!~~~~~~~{,,{)",
"]^/]^~~~~~~~(__:_",
"^<[^[[^^[^[^^<^^^",
"}}}|}~||||}~1}1}2",
"34}33~~567~~735}5",
"8903a3~~3~~333333",
"bcbcccb~~~ccccccc",
"dedfddbd~dfdgdfhb",
"ijkilkjkijikilddd",
"lmlnoplqpllppmlpl",
"rrrrnnnnnnsnsntns",
"uuuuuuuuuuuuuuuuu"};
