/* XPM */
static char * shadednpr_xpm[] = {
"17 17 67 1",
" 	c None",
".	c #636568",
"+	c #58595B",
"@	c #575A5C",
"#	c #575A5B",
"$	c #57595B",
"%	c #57595C",
"&	c #57585B",
"*	c #56595B",
"=	c #56585B",
"-	c #57595A",
";	c #56585A",
">	c #56575A",
",	c #55585A",
"'	c #55575A",
")	c #545759",
"!	c #555759",
"~	c #55565A",
"{	c #555659",
"]	c #545658",
"^	c #555658",
"/	c #545659",
"(	c #000000",
"_	c #545559",
":	c #535557",
"<	c #545558",
"[	c #535657",
"}	c #535558",
"|	c #545557",
"1	c #535457",
"2	c #525557",
"3	c #535556",
"4	c #525457",
"5	c #525456",
"6	c #515456",
"7	c #525356",
"8	c #525455",
"9	c #515355",
"0	c #505355",
"a	c #515254",
"b	c #505255",
"c	c #505354",
"d	c #505254",
"e	c #515255",
"f	c #4F5154",
"g	c #505154",
"h	c #4F5254",
"i	c #4F5153",
"j	c #505253",
"k	c #4F5053",
"l	c #4E5053",
"m	c #4E5153",
"n	c #4F5152",
"o	c #4E5052",
"p	c #4D5052",
"q	c #4E5051",
"r	c #4E4F52",
"s	c #4D4F51",
"t	c #4E4F51",
"u	c #4D4F52",
"v	c #4D4E51",
"w	c #4C4F51",
"x	c #4C4E50",
"y	c #4C4F50",
"z	c #4C4E51",
"A	c #4D4E50",
"B	c #424345",
".................",
"+@#$$%%%%%%%$%$$$",
"&*=-&;*==$-=;=**=",
">>,';'>>,;''>,>'>",
")!!~!'))!)!!)!!{!",
"]^//](((((((]]/]_",
":<[}:(((((((<:|}}",
"1:211:3:244424424",
"55665(76657(56585",
"89999((999((90999",
"abcd0b((b((dddeeb",
"dffdghf(((fgigijj",
"iiiiikil(imnmkklo",
"oooooopooooooqroo",
"ssstsssptqsuutssu",
"vswxwyyzzyxwyzxAx",
"BBBBBBBBBBBBBBBBB"};
