/* XPM */
static char * shadeupfcs_xpm[] = {
"17 17 56 1",
" 	c None",
".	c #636568",
"+	c #555759",
"@	c #545759",
"#	c #555658",
"$	c #545659",
"%	c #555659",
"&	c #545658",
"*	c #545559",
"=	c #535658",
"-	c #545558",
";	c #535558",
">	c #535557",
",	c #535657",
"'	c #525556",
")	c #535457",
"!	c #525457",
"~	c #525557",
"{	c #525456",
"]	c #FFFFFF",
"^	c #525356",
"/	c #515456",
"(	c #515455",
"_	c #515355",
":	c #515356",
"<	c #515255",
"[	c #525355",
"}	c #505254",
"|	c #515254",
"1	c #505355",
"2	c #505354",
"3	c #505255",
"4	c #4F5253",
"5	c #505154",
"6	c #4F5153",
"7	c #505153",
"8	c #4F5154",
"9	c #4E5152",
"0	c #4E5153",
"a	c #4E5053",
"b	c #4F5053",
"c	c #4E5052",
"d	c #4F5052",
"e	c #4D4F52",
"f	c #4D4F51",
"g	c #4E4F52",
"h	c #4E5051",
"i	c #4E4F51",
"j	c #4D5052",
"k	c #4C4F51",
"l	c #4D4E51",
"m	c #4C4E50",
"n	c #4C4F50",
"o	c #4D4E50",
"p	c #4D4F50",
"q	c #424345",
".................",
"+@#@$#%@@+@+$%@%@",
"&&&&$$*&=$&&$$&&&",
"-;=>>,>;=&=;;=;=-",
"'>)!>>>>>;!>)~>>>",
"{{{~{]]]]]]]){){!",
"{^//^]]]]]]]^(//{",
"___:_<:____[_:_(:",
"}|<<}11|]2|_<<3_3",
"4}5}}}}]]]}}}}}}}",
"676}86]]6]]556557",
"906a0]]b66]]06666",
"cccca]cc9ca]cadaa",
"effghicgfccgjjfjc",
"fkfllfffffffffefg",
"mmnommmmkmopkllof",
"qqqqqqqqqqqqqqqqq"};
