/* XPM */
static char * stickfcs_xpm[] = {
"17 17 62 1",
" 	c None",
".	c #77797E",
"+	c #55575A",
"@	c #56575A",
"#	c #565859",
"$	c #55585A",
"%	c #56585A",
"&	c #555759",
"*	c #565759",
"=	c #555659",
"-	c #545759",
";	c #545659",
">	c #545658",
",	c #545758",
"'	c #545557",
")	c #535658",
"!	c #535557",
"~	c #545558",
"{	c #545657",
"]	c #535558",
"^	c #535457",
"/	c #525457",
"(	c #525557",
"_	c #525556",
":	c #525456",
"<	c #FFFFFF",
"[	c #535456",
"}	c #515456",
"|	c #515455",
"1	c #515356",
"2	c #525455",
"3	c #525356",
"4	c #515255",
"5	c #515355",
"6	c #505355",
"7	c #515254",
"8	c #505255",
"9	c #505254",
"0	c #505154",
"a	c #4F5154",
"b	c #4F5153",
"c	c #4F5254",
"d	c #4E5152",
"e	c #4F5152",
"f	c #4E5153",
"g	c #4E5052",
"h	c #4E5053",
"i	c #4F5052",
"j	c #4F5053",
"k	c #4E4F52",
"l	c #4D5052",
"m	c #4D4F52",
"n	c #4D4F51",
"o	c #4E4F51",
"p	c #4D4E51",
"q	c #4D4F50",
"r	c #4D4E50",
"s	c #4C4F51",
"t	c #4C4E50",
"u	c #4C4E51",
"v	c #4C4F50",
"w	c #424345",
".................",
"++@#$$+$%&$*%+%@%",
"=-&;&&=&&&--=&++&",
">>>,->,=;;>;,>;;-",
"')!~~>{~)>>)')])]",
"^!!^/^!!!!!^!^]/!",
"(_:^::/:<^^/[^:::",
"}}|::1::<1:}2322:",
"455454<<<<<555555",
"46789996<69679846",
"0aa99909<baca9c9a",
"bbbbbbbbbbbbbbbbb",
"dddefgdgghdghijig",
"gggkglggglkmlkgkl",
"nnnnnnkmnnnnnonnm",
"pqrssttnuststvust",
"wwwwwwwwwwwwwwwww"};
