/* XPM */
static char * stickufcs_xpm[] = {
"17 17 9 1",
" 	c None",
".	c #E9E9E9",
"+	c #E8E8E8",
"@	c #ECEDEE",
"#	c #000000",
"$	c #9B9B9B",
"%	c #9A9A9A",
"&	c #999999",
"*	c #989898",
"................+",
"@@@@@@@@@@@@@@@@@",
"@@@@@@@@@@@@@@@@@",
"@@@@@@@@@@@@@@@@@",
"@@@@@@@@@@@@@@@@@",
"@@@@@@@@@@@@@@@@@",
"@@@@@@@@#@@@@@@@@",
"@@@@@@@@#@@@@@@@@",
"@@@@@@#####@@@@@@",
"@@@@@@@@#@@@@@@@@",
"@@@@@@@@#@@@@@@@@",
"@@@@@@@@@@@@@@@@@",
"@@@@@@@@@@@@@@@@@",
"@@@@@@@@@@@@@@@@@",
"@@@@@@@@@@@@@@@@@",
"@@@@@@@@@@@@@@@@@",
"$%%%%%%%%&&&&&&&*"};
