/* XPM */
static char * stickpr_xpm[] = {
"17 17 57 1",
" 	c None",
".	c #636568",
"+	c #555659",
"@	c #555658",
"#	c #545658",
"$	c #545759",
"%	c #545659",
"&	c #545758",
"*	c #545558",
"=	c #535558",
"-	c #535658",
";	c #535557",
">	c #525457",
",	c #525456",
"'	c #535457",
")	c #525557",
"!	c #535556",
"~	c #525356",
"{	c #525355",
"]	c #515355",
"^	c #525455",
"/	c #515356",
"(	c #000000",
"_	c #515456",
":	c #515455",
"<	c #505355",
"[	c #515255",
"}	c #505354",
"|	c #515354",
"1	c #505255",
"2	c #505254",
"3	c #505154",
"4	c #505253",
"5	c #4F5254",
"6	c #505153",
"7	c #4F5154",
"8	c #4F5153",
"9	c #4E5153",
"0	c #4F5053",
"a	c #4E5053",
"b	c #4E5052",
"c	c #4F5152",
"d	c #4F5052",
"e	c #4D5052",
"f	c #4E5051",
"g	c #4E4F52",
"h	c #4D4F51",
"i	c #4D5051",
"j	c #4E4F51",
"k	c #4D4F52",
"l	c #4C4F51",
"m	c #4D4E51",
"n	c #4C4E51",
"o	c #4C4F50",
"p	c #4C4E50",
"q	c #4B4E4F",
"r	c #424345",
".................",
"++@#$%#&#+%%##%$$",
"*##=#*##-##=#=##-",
"-;;=;;*;;;;;;=;;;",
";>>>,>,;;'))'>!''",
",,>,,,,,,,,,~,~,,",
"{~~]~^//(/_::{:/~",
"<[<[[<}|(][<]]1<1",
"}2}122(((((222222",
"33425236(75783577",
"78788888(89888808",
"9abbcba99dbdb9a00",
"bbbbbbebefebgbbbb",
"hijhkkjhihjhkiihh",
"lhhmnlmhnohlppnhm",
"pppppppppppqqqqqq",
"rrrrrrrrrrrrrrrrr"};
