/* XPM */
static char * unstickfcs_xpm[] = {
"17 17 61 1",
" 	c None",
".	c #636568",
"+	c #545759",
"@	c #555759",
"#	c #545659",
"$	c #545658",
"%	c #555659",
"&	c #545558",
"*	c #545559",
"=	c #535658",
"-	c #535558",
";	c #535557",
">	c #535657",
",	c #535457",
"'	c #535456",
")	c #525557",
"!	c #525457",
"~	c #525456",
"{	c #525556",
"]	c #525455",
"^	c #515455",
"/	c #525355",
"(	c #525356",
"_	c #515356",
":	c #515456",
"<	c #515355",
"[	c #505355",
"}	c #515255",
"|	c #505255",
"1	c #515254",
"2	c #515354",
"3	c #505254",
"4	c #FFFFFF",
"5	c #505253",
"6	c #4F5254",
"7	c #505154",
"8	c #4F5154",
"9	c #4F5153",
"0	c #4F5253",
"a	c #505153",
"b	c #4E5153",
"c	c #4F5152",
"d	c #4F5053",
"e	c #4F5052",
"f	c #4E5053",
"g	c #4E5052",
"h	c #4E4F52",
"i	c #4E4F51",
"j	c #4D4F51",
"k	c #4D4F52",
"l	c #4D5052",
"m	c #4D5051",
"n	c #4E5051",
"o	c #4D4E50",
"p	c #4D4F50",
"q	c #4C4F51",
"r	c #4C4F50",
"s	c #4C4E51",
"t	c #4C4E50",
"u	c #4D4E51",
"v	c #424345",
".................",
"+@#$+%%##@#@@%+$@",
"$$&$&$$$###*#$=$#",
"--=;>=----->$---&",
",,;,',,)!,!;);;;;",
"~!~!~!!~!~,!~!,~{",
"]^/~(]_::<^]<~~(:",
"[<<[<<_<<_<<<<}<<",
"|1[123444442[313}",
"56776666335636866",
"989998088a0989869",
"bcde9d9feecfec9cf",
"gggggggggggggghgg",
"iijiklkiikhikmkkn",
"jjojpojjqjjjrjspp",
"ttttttttttstutttt",
"vvvvvvvvvvvvvvvvv"};
