/* XPM */
static char * unstickpr_xpm[] = {
"17 17 58 1",
" 	c None",
".	c #636568",
"+	c #55575A",
"@	c #56575A",
"#	c #555759",
"$	c #55585A",
"%	c #555659",
"&	c #545759",
"*	c #545659",
"=	c #555658",
"-	c #545658",
";	c #535558",
">	c #545558",
",	c #535557",
"'	c #535658",
")	c #535657",
"!	c #535457",
"~	c #525557",
"{	c #525457",
"]	c #535456",
"^	c #525456",
"/	c #525556",
"(	c #515456",
"_	c #525455",
":	c #515356",
"<	c #525356",
"[	c #515355",
"}	c #515455",
"|	c #000000",
"1	c #515255",
"2	c #505355",
"3	c #505254",
"4	c #505354",
"5	c #515354",
"6	c #505255",
"7	c #4F5254",
"8	c #505154",
"9	c #505253",
"0	c #4F5154",
"a	c #4F5153",
"b	c #4F5253",
"c	c #4E5153",
"d	c #4E5053",
"e	c #4F5053",
"f	c #4E5152",
"g	c #4E5052",
"h	c #4F5052",
"i	c #4E4F52",
"j	c #4E5051",
"k	c #4D5052",
"l	c #4E4F51",
"m	c #4D4F51",
"n	c #4C4E50",
"o	c #4C4E51",
"p	c #4D4F50",
"q	c #4C4F51",
"r	c #4D4E51",
"s	c #424345",
".................",
"+@@+#+###+@@#@$@#",
"%#%###++#####&*#&",
"*&=--*&-*-------*",
";;>-,->>;'->)'-;,",
";;,,!~,;~,,{,!~~!",
"]{{,]]^/{{^]^^{^^",
"(^^_(:(:_^:((<^[<",
"[(}[:[|||||12[[12",
"3[[24453643634333",
"78833883737797877",
"0aabaa0a0aacaaaaa",
"dedddccfggceghfdg",
"gigjkgjggikkigjlk",
"jkmmkmmmmmmmmmmmm",
"noppqmnrpqoqnqrnq",
"sssssssssssssssss"};
